<svg xmlns="http://www.w3.org/2000/svg" version="1.1" xmlns:xlink="http://www.w3.org/1999/xlink" width="256" height="256"><svg xmlns="http://www.w3.org/2000/svg" version="1.1" viewBox="0 0 256 256">
  <!-- Generator: Adobe Illustrator 29.7.1, SVG Export Plug-In . SVG Version: 2.1.1 Build 8)  -->
  <g id="SvgjsG1141" data-name="レイヤー_3">
    <circle cx="128" cy="128" r="128" fill="#fff"></circle>
  </g>
  <g id="SvgjsG1140" data-name="レイヤー_1">
    <path d="M167.95,164.21l-40.71-23.5c-2.71-1.56-3.64-5.03-2.07-7.73h0c1.56-2.71,5.03-3.64,7.73-2.07l35.05,20.24c1.75,1.01,3.91,1.01,5.66,0l34.29-19.8c1.75-1.01,2.83-2.88,2.83-4.9v-39.6c0-2.02-1.08-3.89-2.83-4.9l-34.29-19.8c-1.75-1.01-3.91-1.01-5.66,0l-35.05,20.24c-2.71,1.56-6.17.64-7.73-2.07h0c-1.56-2.71-.64-6.17,2.07-7.73l40.71-23.51c1.75-1.01,3.91-1.01,5.66,0l45.61,26.34c1.75,1.01,2.83,2.88,2.83,4.9v52.67c0,2.02-1.08,3.89-2.83,4.9l-45.61,26.33c-1.75,1.01-3.91,1.01-5.66,0Z"></path>
    <path d="M82.39,206.94l-45.61-26.34c-1.75-1.01-2.83-2.88-2.83-4.9v-52.67c0-2.02,1.08-3.89,2.83-4.9l45.61-26.33c1.75-1.01,3.91-1.01,5.66,0l40.71,23.5c2.71,1.56,3.64,5.03,2.07,7.73h0c-1.56,2.71-5.03,3.64-7.73,2.07l-35.05-20.24c-1.75-1.01-3.91-1.01-5.66,0l-34.29,19.8c-1.75,1.01-2.83,2.88-2.83,4.9v39.6c0,2.02,1.08,3.89,2.83,4.9l34.29,19.8c1.75,1.01,3.91,1.01,5.66,0l35.05-20.24c2.71-1.56,6.17-.64,7.73,2.07h0c1.56,2.71.64,6.17-2.07,7.73l-40.71,23.51c-1.75,1.01-3.91,1.01-5.66,0Z"></path>
    <g>
      <path d="M85.98,150.01l23.07,13.32c1.53.89,2.06,2.85,1.17,4.38h0c-.89,1.53-2.85,2.06-4.38,1.17l-19.86-11.47"></path>
      <path d="M82.77,150.01c.99-.57,2.22-.57,3.21,0v7.41c-.99-.57-2.22-.57-3.21,0"></path>
      <path d="M82.77,150.01l-23.07,13.32c-1.53.89-2.06,2.85-1.17,4.38h0c.89,1.53,2.85,2.06,4.38,1.17l19.86-11.47"></path>
    </g>
    <g>
      <path d="M167.82,106.27c.99.57,2.22.57,3.21,0v-7.41c-.99.57-2.22.57-3.21,0"></path>
      <path d="M171.03,106.27l23.07-13.32c1.53-.89,2.06-2.85,1.17-4.38h0c-.89-1.53-2.85-2.06-4.38-1.17l-19.86,11.47"></path>
      <path d="M167.82,106.27l-23.07-13.32c-1.53-.89-2.06-2.85-1.17-4.38h0c.89-1.53,2.85-2.06,4.38-1.17l19.86,11.47"></path>
    </g>
    <path d="M116.31,87.58v-37.09l-11.32-6.54v52.67"></path>
    <path d="M137.49,201.05v-37.09l11.32-6.54v52.67"></path>
  </g>
</svg><style>@media (prefers-color-scheme: light) { :root { filter: none; } }
@media (prefers-color-scheme: dark) { :root { filter: none; } }
</style></svg>